<svg width="681" height="596" viewBox="0 0 681 596" fill="none" xmlns="http://www.w3.org/2000/svg">
<path d="M522.463 387.416C547.02 384.151 575.756 382.496 590.647 362.25C593.651 357.766 594.043 354.021 593.259 352.062C583.55 328.986 594.391 302.426 617.468 292.717C652.169 277.739 689.396 311.221 678.554 347.055L671.893 370C666.668 388.287 655.217 404.223 641.153 415.674C607.758 443.757 562.346 444.497 522.768 439.577C491.55 435.789 491.593 391.335 522.463 387.329V387.416Z" fill="#B5FF3F"/>
<path d="M649.817 97.5268C647.466 109.936 635.884 108.891 623.345 132.228C614.811 148.12 615.42 157.394 605.406 163.359C598.353 167.539 588.121 168.889 580.284 164.927C570.618 160.05 570.792 150.428 562.607 134.492C549.98 109.849 537.223 110.806 534.741 97.5268C530.779 76.3228 557.033 39.967 592.301 39.967C627.568 39.967 653.823 76.3664 649.861 97.5268H649.817Z" fill="#FFB487"/>
<path d="M618.214 364.055C626.884 361.664 627.868 337.814 620.413 310.785C612.958 283.756 599.886 263.783 591.216 266.175C582.547 268.566 581.562 292.416 589.017 319.445C596.473 346.473 609.544 366.446 618.214 364.055Z" fill="#B5FF3F"/>
<path d="M587.989 316.968L582.678 280.83C582.068 276.694 581.458 272.47 582.59 268.421C583.723 264.372 586.988 260.671 591.124 260.41C597.438 260.018 601.313 266.984 603.664 272.819L615.594 302.949" stroke="#3E3D4D" stroke-width="8.22852" stroke-miterlimit="10" stroke-linecap="round"/>
<path d="M616.944 305.561C618.511 297.854 627.219 292.455 634.795 294.458C642.371 296.461 647.247 305.474 644.809 312.919" stroke="#3E3D4D" stroke-width="8.22852" stroke-miterlimit="10" stroke-linecap="round"/>
<path d="M643.112 298.028C651.167 296.069 660.267 299.03 665.622 305.387C670.978 311.744 672.371 321.192 669.062 328.811" stroke="#3E3D4D" stroke-width="8.22852" stroke-miterlimit="10" stroke-linecap="round"/>
<path d="M582.897 159.658C586.554 146.292 586.206 131.88 581.939 118.731C580.807 115.334 578.586 111.372 575.016 111.503C571.576 111.634 569.486 115.639 569.791 119.079C570.314 125.305 576.671 130.225 582.94 129.746C589.21 129.267 594.478 123.825 595.48 117.642C595.785 115.639 595.698 113.506 594.696 111.764C593.695 110.023 591.648 108.76 589.689 109.108C586.249 109.718 585.204 114.464 586.467 117.729C588.688 123.433 595.61 126.655 601.488 125.044C607.366 123.433 611.633 117.425 611.59 111.329C611.59 108.847 610.109 105.756 607.671 106.104C605.625 106.365 604.71 108.804 604.275 110.807C601.227 125.218 600.879 140.152 603.23 154.695" stroke="#3E3D4D" stroke-width="3.0857" stroke-miterlimit="10" stroke-linecap="round"/>
<path d="M241.413 513.639C225.826 494.046 278.64 425.949 359.493 361.597C371.989 351.626 384.398 342.396 396.546 333.906C427.329 312.31 456.326 295.678 479.838 285.794C507.05 274.299 527.035 271.687 534.132 280.569C549.719 300.206 496.905 368.259 416.052 432.654C335.241 497.006 257.087 533.275 241.456 513.682L241.413 513.639Z" fill="#B5FF3F"/>
<path d="M330.393 565.598C370.248 563.844 398.549 471.378 393.607 359.069C388.664 246.761 352.348 157.139 312.494 158.893C272.639 160.647 244.338 253.113 249.281 365.421C254.223 477.73 290.539 567.352 330.393 565.598Z" fill="#B5FF3F"/>
<path d="M329.904 546.298C359.142 519.157 320.843 430.365 244.361 347.974C167.879 265.584 82.177 220.795 52.9394 247.936C23.7018 275.076 62.0006 363.869 138.482 446.26C214.964 528.65 300.666 573.439 329.904 546.298Z" fill="#B5FF3F"/>
<path d="M540.314 446.195C533.87 501.796 452.581 533.928 415.79 548.47C309.77 590.399 142.924 596.19 108.963 521.78C76.0905 449.722 167.525 301.729 293.486 281.657C417.575 261.89 549.066 370.392 540.27 446.195H540.314Z" fill="#B5FF3F"/>
<path d="M322.266 398.04C314.124 409.404 325.183 423.206 337.592 423.728C350.915 424.251 360.407 410.362 357.882 397.996C355.052 384.281 338.942 379.1 327.36 385.195C314.777 391.814 313.602 408.664 322.919 418.504C328.841 424.73 338.202 426.472 345.865 422.684C353.528 418.896 358.317 410.057 353.658 402.133C351.525 398.475 347.78 397.605 343.905 398.171C344.254 398.127 346.039 397.866 344.733 397.909C342.599 397.996 340.683 398.606 338.768 399.607C338.506 399.738 336.808 400.783 338.115 400.086C339.595 399.259 336.504 400.304 338.507 399.999C340.596 399.694 337.287 399.999 337.374 399.912C337.766 399.433 339.987 400.478 340.379 400.696C338.942 400.043 340.379 400.609 340.945 401.131C341.554 401.741 341.903 403.091 341.38 401.654L341.946 403.134C341.641 402.045 341.598 402.089 341.772 403.177C341.859 404.179 341.859 404.31 341.816 403.613C341.816 402.916 341.772 403.047 341.685 404.048C341.511 405.05 341.511 405.18 341.685 404.484C341.903 403.831 341.816 403.961 341.511 404.832C340.858 405.877 340.422 406.53 339.551 407.401C338.637 408.011 338.637 408.054 339.551 407.445L337.984 408.054C337.984 408.054 339.508 407.662 339.508 407.619C339.377 407.88 336.504 407.923 338.507 407.923L336.678 407.706C337.723 408.054 337.679 408.011 336.634 407.619C335.502 406.966 334.893 406.443 333.935 405.572C333.369 404.745 333.238 404.571 333.586 405.137C333.935 405.746 333.848 405.529 333.369 404.571C333.238 404.005 332.846 401.436 332.803 402.045C332.803 402.394 332.672 403.569 332.803 403.874C332.585 403.482 333.412 400.913 332.803 402.655C332.977 402.089 334.109 400.348 333.195 401.697C332.28 403.047 333.543 401.305 333.848 400.957C332.759 402.263 334.98 400.348 335.459 400.086C336.373 399.738 336.547 399.694 335.894 399.868C335.241 400.043 335.415 399.999 336.417 399.825C336.983 399.651 337.549 399.651 338.158 399.825C339.116 399.999 339.29 399.999 338.681 399.825C337.287 399.477 341.032 401.001 339.247 399.956C339.726 400.26 341.032 401.436 339.987 400.304C340.379 400.696 341.38 402.089 340.509 400.826C339.377 399.172 338.071 397.822 336.417 396.734C334.24 395.297 337.287 398.258 335.763 396.255C332.063 391.509 325.14 394.078 322.31 397.996L322.266 398.04Z" fill="#3E3D4D"/>
<path d="M254.647 308.26C259.959 291.628 279.465 286.795 292.048 298.899C296.577 303.253 303.543 296.374 298.971 291.977C281.033 274.691 252.775 281.962 245.199 305.648C243.284 311.657 252.732 314.225 254.647 308.26Z" fill="#3E3D4D"/>
<path d="M398.678 283.399C403.99 266.767 423.496 261.934 436.079 274.038C440.607 278.392 447.574 271.513 443.002 267.115C425.064 249.83 396.806 257.101 389.23 280.787C387.314 286.795 396.763 289.364 398.678 283.399Z" fill="#3E3D4D"/>
<path d="M415.614 393.12C413.829 399.477 417.573 406.4 423.103 409.622C428.154 412.582 434.946 412.408 439.779 409.056C444.612 405.703 448.443 399.999 447.921 393.817C447.311 386.545 442.87 380.362 435.686 378.36C429.808 376.705 422.885 378.186 418.488 382.583C414.09 386.981 412.349 393.555 414.003 399.738C415.658 405.921 420.534 410.492 426.499 411.973C434.467 413.975 442.261 409.099 444.83 401.567C446.092 397.866 444.655 393.425 441.956 390.769C438.908 387.721 435.207 387.285 431.158 387.895C430.723 387.982 430.287 388.069 429.852 388.2L432.943 387.764C432.508 387.808 432.072 387.851 431.637 387.764L434.859 388.2C433.988 388.069 433.074 387.938 432.246 387.634L435.207 388.897C434.946 388.766 434.685 388.635 434.423 388.461L436.949 390.42C436.601 390.116 436.296 389.854 435.991 389.506L437.95 392.031C437.689 391.639 437.471 391.291 437.254 390.899L438.516 393.903C438.299 393.337 438.124 392.772 438.037 392.206L438.473 395.558C438.473 395.079 438.473 394.687 438.473 394.252L438.037 397.605C438.081 397.3 438.168 397.038 438.255 396.734L436.992 399.738C437.167 399.303 437.384 398.954 437.645 398.606L435.686 401.175C435.86 400.957 436.078 400.739 436.339 400.565L433.77 402.525C434.162 402.263 434.511 402.045 434.903 401.871L431.855 403.134C432.29 402.96 432.682 402.873 433.161 402.786L429.765 403.221C430.244 403.221 430.635 403.178 431.114 403.221L427.718 402.786C428.154 402.873 428.589 402.96 429.025 403.091L425.977 401.784C426.412 401.958 426.76 402.176 427.109 402.437L424.54 400.434C424.758 400.609 424.975 400.826 425.149 401.088L423.147 398.475C423.147 398.475 423.451 398.911 423.582 399.172L422.276 396.124C422.45 396.516 422.537 396.864 422.624 397.256L422.145 393.86C422.189 394.513 422.189 395.21 422.145 395.863L422.581 392.467C422.494 392.902 422.406 393.25 422.276 393.642L423.538 390.638C423.321 391.16 423.06 391.596 422.711 392.075L424.671 389.549C424.409 389.854 424.148 390.115 423.8 390.377L426.282 388.461C425.933 388.679 425.628 388.853 425.237 389.027L428.154 387.808C427.892 387.895 427.631 387.982 427.37 387.982L430.592 387.547C430.331 387.547 430.069 387.59 429.765 387.547L432.943 387.982C432.551 387.939 432.203 387.851 431.811 387.721L434.641 388.897C434.293 388.722 433.988 388.548 433.64 388.33L435.991 390.159C435.686 389.898 435.425 389.637 435.164 389.332L436.992 391.683C436.122 390.507 435.425 389.071 434.293 388.113C431.071 385.544 427.544 384.063 423.364 385.239C419.576 386.284 416.572 389.288 415.527 393.076L415.614 393.12Z" fill="#3E3D4D"/>
<path d="M423.366 478.85C417.706 485.425 409.433 490.911 399.158 492.13C383.57 494.002 370.116 485.25 363.585 476.063C360.189 471.405 358.622 466.615 359.493 463.089C363.455 446.848 423.366 440.143 430.855 455.164C433.511 460.476 430.55 470.534 423.366 478.85Z" fill="#3E3D4D" stroke="#3E3D4D" stroke-width="8.22852" stroke-miterlimit="10" stroke-linecap="round"/>
<path d="M423.365 478.85C417.705 485.425 409.432 490.911 399.157 492.13C383.569 494.002 370.116 485.251 363.585 476.064C370.725 471.448 384.745 468.444 396.98 469.576C406.428 470.447 417.879 474.148 423.365 478.85Z" fill="white"/>
<path d="M610.412 173.765C614.94 178.86 606.232 201.588 594.128 201.936C581.937 202.284 572.053 179.861 576.32 174.506C578.018 172.372 581.11 174.114 594.128 173.765C606.058 173.461 608.714 171.85 610.412 173.765Z" fill="#3E3D4D"/>
<path d="M529.254 45.3224L509.269 24.2056" stroke="#3E3D4D" stroke-width="3.0857" stroke-miterlimit="10" stroke-linecap="round"/>
<path d="M597.047 19.808V2" stroke="#3E3D4D" stroke-width="3.0857" stroke-miterlimit="10" stroke-linecap="round"/>
<path d="M659.395 56.6429L673.894 47.8042" stroke="#3E3D4D" stroke-width="3.0857" stroke-miterlimit="10" stroke-linecap="round"/>
</svg>
