<svg width="116" height="115" viewBox="0 0 116 115" fill="none" xmlns="http://www.w3.org/2000/svg">
<g clip-path="url(#clip0_91_284)">
<path d="M45.2721 57.1177H70.7279M58 44.3898V69.8456M83.4558 31.6618C86.7987 35.0047 89.4505 38.9733 91.2596 43.3411C93.0688 47.7088 94 52.3901 94 57.1177C94 61.8453 93.0688 66.5266 91.2596 70.8943C89.4505 75.262 86.7987 79.2306 83.4558 82.5735C80.1129 85.9164 76.1443 88.5682 71.7766 90.3773C67.4089 92.1865 62.7276 93.1177 58 93.1177C53.2724 93.1177 48.5911 92.1865 44.2234 90.3773C39.8557 88.5682 35.887 85.9164 32.5441 82.5735C25.7928 75.8222 22 66.6655 22 57.1177C22 47.5699 25.7928 38.4131 32.5441 31.6618C39.2954 24.9105 48.4522 21.1177 58 21.1177C67.5478 21.1177 76.7045 24.9105 83.4558 31.6618Z" stroke="#CCCCCC" stroke-width="6" stroke-linecap="round" stroke-linejoin="round"/>
</g>
<defs>
<clipPath id="clip0_91_284">
<rect width="80.7766" height="80.7766" fill="white" transform="translate(0.882324 57.1177) rotate(-45)"/>
</clipPath>
</defs>
</svg>
