<svg width="25" height="24" viewBox="0 0 25 24" fill="none" xmlns="http://www.w3.org/2000/svg">
<path d="M6.66667 2V4.5M18.3333 2V4.5M2.5 19.5V7C2.5 6.33696 2.76339 5.70107 3.23223 5.23223C3.70107 4.76339 4.33696 4.5 5 4.5H20C20.663 4.5 21.2989 4.76339 21.7678 5.23223C22.2366 5.70107 22.5 6.33696 22.5 7V19.5M2.5 19.5C2.5 20.163 2.76339 20.7989 3.23223 21.2678C3.70107 21.7366 4.33696 22 5 22H20C20.663 22 21.2989 21.7366 21.7678 21.2678C22.2366 20.7989 22.5 20.163 22.5 19.5M2.5 19.5V11.1667C2.5 10.5036 2.76339 9.86774 3.23223 9.3989C3.70107 8.93006 4.33696 8.66667 5 8.66667H20C20.663 8.66667 21.2989 8.93006 21.7678 9.3989C22.2366 9.86774 22.5 10.5036 22.5 11.1667V19.5M12.5 12.8333H12.5089V12.8422H12.5V12.8333ZM12.5 15.3333H12.5089V15.3422H12.5V15.3333ZM12.5 17.8333H12.5089V17.8422H12.5V17.8333ZM10 15.3333H10.0089V15.3422H10V15.3333ZM10 17.8333H10.0089V17.8422H10V17.8333ZM7.5 15.3333H7.50889V15.3422H7.5V15.3333ZM7.5 17.8333H7.50889V17.8422H7.5V17.8333ZM15 12.8333H15.0089V12.8422H15V12.8333ZM15 15.3333H15.0089V15.3422H15V15.3333ZM15 17.8333H15.0089V17.8422H15V17.8333ZM17.5 12.8333H17.5089V12.8422H17.5V12.8333ZM17.5 15.3333H17.5089V15.3422H17.5V15.3333Z" stroke="#6F6D6B" stroke-width="1.5" stroke-linecap="round" stroke-linejoin="round"/>
</svg>
