<svg xmlns="http://www.w3.org/2000/svg" width="24" height="25" viewBox="0 0 24 25" fill="none">
  <path fill-rule="evenodd" clip-rule="evenodd" d="M12.53 16.78C12.3893 16.9205 12.1987 16.9994 12 16.9994C11.8012 16.9994 11.6106 16.9205 11.47 16.78L3.96997 9.28003C3.83749 9.13786 3.76537 8.94981 3.76879 8.75551C3.77222 8.56121 3.85093 8.37582 3.98835 8.23841C4.12576 8.101 4.31114 8.02228 4.50545 8.01886C4.69975 8.01543 4.88779 8.08755 5.02997 8.22003L12 15.19L18.97 8.22003C19.0386 8.14634 19.1214 8.08724 19.2134 8.04625C19.3054 8.00526 19.4047 7.98322 19.5054 7.98144C19.6061 7.97966 19.7062 7.99819 19.7996 8.03591C19.893 8.07363 19.9778 8.12977 20.049 8.20099C20.1202 8.27221 20.1764 8.35705 20.2141 8.45043C20.2518 8.54382 20.2703 8.64385 20.2686 8.74455C20.2668 8.84526 20.2447 8.94457 20.2038 9.03657C20.1628 9.12857 20.1037 9.21137 20.03 9.28003L12.53 16.78Z" fill="#6F6D6B" stroke="#6F6D6B"/>
</svg>
