<svg xmlns="http://www.w3.org/2000/svg" width="25" height="24" viewBox="0 0 25 24" fill="none">
  <g clip-path="url(#clip0_8_303)">
    <path d="M16.3502 15.8502C15.8446 16.3558 15.2443 16.7569 14.5837 17.0305C13.9231 17.3042 13.215 17.445 12.5 17.445C11.7849 17.445 11.0769 17.3042 10.4163 17.0305C9.75564 16.7569 9.15538 16.3558 8.64976 15.8502M23.39 12C23.39 13.4301 23.1083 14.8462 22.561 16.1674C22.0138 17.4886 21.2116 18.6891 20.2004 19.7004C19.1891 20.7116 17.9886 21.5138 16.6674 22.061C15.3462 22.6083 13.9301 22.89 12.5 22.89C11.0699 22.89 9.6538 22.6083 8.33256 22.061C7.01133 21.5138 5.81082 20.7116 4.79959 19.7004C3.78836 18.6891 2.98621 17.4886 2.43894 16.1674C1.89166 14.8462 1.60999 13.4301 1.60999 12C1.60999 9.11178 2.75732 6.34186 4.79959 4.29959C6.84186 2.25732 9.61178 1.10999 12.5 1.10999C15.3882 1.10999 18.1581 2.25732 20.2004 4.29959C22.2426 6.34186 23.39 9.11178 23.39 12ZM9.77748 9.27748C9.77748 9.77842 9.5742 10.185 9.32373 10.185C9.07326 10.185 8.86998 9.77842 8.86998 9.27748C8.86998 8.77654 9.07326 8.36998 9.32373 8.36998C9.5742 8.36998 9.77748 8.77654 9.77748 9.27748ZM9.32373 9.27748H9.33342V9.29564H9.32373V9.27748ZM16.13 9.27748C16.13 9.77842 15.9267 10.185 15.6762 10.185C15.4258 10.185 15.2225 9.77842 15.2225 9.27748C15.2225 8.77654 15.4258 8.36998 15.6762 8.36998C15.9267 8.36998 16.13 8.77654 16.13 9.27748ZM15.6762 9.27748H15.6859V9.29564H15.6762V9.27748Z" stroke="#6F6D6B" stroke-width="1.815" stroke-linecap="round" stroke-linejoin="round"/>
  </g>
  <defs>
    <clipPath id="clip0_8_303">
      <rect width="24" height="24" fill="white" transform="translate(0.5)"/>
    </clipPath>
  </defs>
</svg>
