<svg width="96" height="97" viewBox="0 0 96 97" fill="none" xmlns="http://www.w3.org/2000/svg">
<path d="M60 48.2354H36M84 48.2354C84 52.9629 83.0688 57.6442 81.2597 62.012C79.4505 66.3797 76.7988 70.3483 73.4558 73.6912C70.1129 77.0341 66.1443 79.6858 61.7766 81.495C57.4089 83.3042 52.7276 84.2354 48 84.2354C43.2724 84.2354 38.5911 83.3042 34.2234 81.495C29.8557 79.6858 25.8871 77.0341 22.5442 73.6912C19.2012 70.3483 16.5495 66.3797 14.7403 62.012C12.9312 57.6442 12 52.9629 12 48.2354C12 38.6876 15.7928 29.5308 22.5442 22.7795C29.2955 16.0282 38.4522 12.2354 48 12.2354C57.5478 12.2354 66.7045 16.0282 73.4558 22.7795C80.2072 29.5308 84 38.6876 84 48.2354Z" stroke="#CCCCCC" stroke-width="6" stroke-linecap="round" stroke-linejoin="round"/>
</svg>
