<svg xmlns="http://www.w3.org/2000/svg" width="32" height="33" viewBox="0 0 32 33" fill="none">
  <path d="M15 7.616C15 7.14267 14.752 6.71467 14.4653 6.33733C14.1668 5.95516 14.0032 5.48493 14 5C14 3.61867 15.3427 2.5 17 2.5C18.6573 2.5 20 3.62 20 5C20 5.492 19.8293 5.95067 19.5347 6.33733C19.248 6.71467 19 7.14267 19 7.616C19 8.05867 19.3707 8.41333 19.8133 8.38667C22.36 8.23467 24.8667 7.93067 27.3227 7.48533C27.4564 7.46108 27.5938 7.46436 27.7262 7.49498C27.8587 7.52559 27.9835 7.5829 28.0931 7.66339C28.2027 7.74388 28.2947 7.84587 28.3635 7.96312C28.4323 8.08037 28.4765 8.21043 28.4933 8.34533C28.7951 10.7573 28.9624 13.1841 28.9947 15.6147C28.9959 15.7308 28.974 15.8461 28.9303 15.9537C28.8866 16.0613 28.8219 16.1592 28.74 16.2416C28.6581 16.3239 28.5607 16.3892 28.4533 16.4336C28.3459 16.478 28.2308 16.5005 28.1147 16.5C27.6427 16.5 27.2147 16.252 26.8373 15.9653C26.4552 15.6668 25.9849 15.5032 25.5 15.5C24.12 15.5 23 16.8427 23 18.5C23 20.1573 24.12 21.5 25.5 21.5C25.992 21.5 26.4507 21.3293 26.8373 21.0347C27.2147 20.748 27.6427 20.5 28.116 20.5C28.5293 20.5 28.8587 20.8493 28.828 21.2613C28.6715 23.4266 28.4068 25.5826 28.0347 27.7213C27.9993 27.9241 27.9022 28.1111 27.7566 28.2566C27.6111 28.4022 27.4241 28.4993 27.2213 28.5347C24.7947 28.9573 22.324 29.2453 19.8147 29.3907C19.7096 29.3963 19.6044 29.3804 19.5057 29.344C19.407 29.3076 19.3167 29.2514 19.2404 29.1789C19.1642 29.1063 19.1035 29.019 19.0622 28.9222C19.0208 28.8254 18.9997 28.7212 19 28.616C19 28.1427 19.248 27.7147 19.5347 27.3373C19.8293 26.9507 20 26.492 20 26C20 24.62 18.6573 23.5 17 23.5C15.3427 23.5 14 24.62 14 26C14 26.492 14.1707 26.9507 14.4653 27.3373C14.752 27.7147 15 28.1427 15 28.616C15.0004 28.7304 14.9778 28.8437 14.9336 28.9492C14.8894 29.0547 14.8245 29.1503 14.7427 29.2302C14.6609 29.3102 14.5638 29.3729 14.4573 29.4147C14.3508 29.4564 14.237 29.4764 14.1227 29.4733C12.0237 29.4141 9.92887 29.2539 7.84533 28.9933C7.71043 28.9765 7.58037 28.9323 7.46312 28.8635C7.34587 28.7947 7.24388 28.7027 7.16339 28.5931C7.0829 28.4835 7.02559 28.3587 6.99498 28.2262C6.96436 28.0938 6.96108 27.9564 6.98533 27.8227C7.376 25.6707 7.65733 23.48 7.824 21.2573C7.83098 21.1602 7.81783 21.0628 7.78537 20.971C7.75291 20.8792 7.70184 20.7952 7.63537 20.7241C7.5689 20.653 7.48846 20.5964 7.39908 20.5578C7.30971 20.5192 7.21333 20.4996 7.116 20.5C6.64267 20.5 6.21467 20.748 5.83733 21.0347C5.45067 21.3293 4.992 21.5 4.5 21.5C3.11867 21.5 2 20.1573 2 18.5C2 16.8427 3.12 15.5 4.5 15.5C4.992 15.5 5.45067 15.6707 5.83733 15.9653C6.21467 16.252 6.64267 16.5 7.116 16.5C7.23199 16.5005 7.34693 16.478 7.45412 16.4337C7.56132 16.3894 7.65863 16.3242 7.7404 16.242C7.82217 16.1597 7.88676 16.062 7.93041 15.9545C7.97406 15.8471 7.99591 15.732 7.99467 15.616C7.9655 13.4682 7.82754 11.3232 7.58133 9.18933C7.56389 9.03967 7.58049 8.888 7.62989 8.74565C7.6793 8.60331 7.76024 8.47397 7.86665 8.3673C7.97307 8.26062 8.10221 8.17938 8.24444 8.12963C8.38667 8.07988 8.5383 8.06291 8.688 8.08C10.4787 8.28667 12.292 8.41867 14.124 8.472C14.2382 8.47503 14.3518 8.45512 14.4581 8.41343C14.5645 8.37173 14.6614 8.30912 14.7431 8.22929C14.8248 8.14947 14.8896 8.05405 14.9337 7.9487C14.9779 7.84336 15.0004 7.73022 15 7.616Z" fill="#6F6D6B"/>
</svg>
