<svg width="96" height="97" viewBox="0 0 96 97" fill="none" xmlns="http://www.w3.org/2000/svg">
<path d="M36 51.1177L45 60.1177L60 39.1177M84 48.1177C84 52.8453 83.0688 57.5266 81.2597 61.8943C79.4505 66.262 76.7988 70.2306 73.4558 73.5735C70.1129 76.9164 66.1443 79.5682 61.7766 81.3773C57.4089 83.1865 52.7276 84.1177 48 84.1177C43.2724 84.1177 38.5911 83.1865 34.2234 81.3773C29.8557 79.5682 25.8871 76.9164 22.5442 73.5735C19.2012 70.2306 16.5495 66.262 14.7403 61.8943C12.9312 57.5266 12 52.8453 12 48.1177C12 38.5699 15.7928 29.4131 22.5442 22.6618C29.2955 15.9105 38.4522 12.1177 48 12.1177C57.5478 12.1177 66.7045 15.9105 73.4558 22.6618C80.2072 29.4131 84 38.5699 84 48.1177Z" stroke="#98C259" stroke-width="6" stroke-linecap="round" stroke-linejoin="round"/>
</svg>
