<svg xmlns="http://www.w3.org/2000/svg" width="22" height="22" viewBox="0 0 22 22" fill="none">
  <path d="M11 4.39998V11.55L15.95 11M20.9 11C20.9 12.3001 20.6439 13.5874 20.1464 14.7885C19.6489 15.9897 18.9196 17.081 18.0003 18.0003C17.081 18.9196 15.9897 19.6489 14.7885 20.1464C13.5874 20.6439 12.3001 20.9 11 20.9C9.69989 20.9 8.41253 20.6439 7.21141 20.1464C6.01029 19.6489 4.91892 18.9196 3.99962 18.0003C3.08032 17.081 2.35109 15.9897 1.85357 14.7885C1.35605 13.5874 1.09998 12.3001 1.09998 11C1.09998 8.37433 2.14301 5.85623 3.99962 3.99962C5.85623 2.14301 8.37433 1.09998 11 1.09998C13.6256 1.09998 16.1437 2.14301 18.0003 3.99962C19.8569 5.85623 20.9 8.37433 20.9 11Z" stroke="#6F6D6B" stroke-width="1.65" stroke-linecap="round" stroke-linejoin="round"/>
</svg>
